<mxfile host="app.diagrams.net" modified="2024-05-28T14:54:44.310Z" agent="Mozilla/5.0 (Windows NT 10.0; Win64; x64) AppleWebKit/537.36 (KHTML, like Gecko) Chrome/125.0.0.0 Safari/537.36" version="24.4.9" etag="1dRB-Jmo4r-ksXzzXyqG" type="github">
  <diagram name="Page-1" id="KNhVFJh3Q4WkVzkrzIVe">
    <mxGraphModel>
      <root>
        <mxCell id="0" />
        <mxCell id="1" parent="0" />
      </root>
    </mxGraphModel>
  </diagram>
</mxfile>
